<?xml version="1.0" encoding="utf-8"?>
<!-- Generator: Adobe Illustrator 23.0.6, SVG Export Plug-In . SVG Version: 6.00 Build 0)  -->
<svg version="1.0" id="Capa_1" xmlns="http://www.w3.org/2000/svg" xmlns:xlink="http://www.w3.org/1999/xlink" x="0px" y="0px"
	 width="119.1px" height="119.1px" viewBox="0 0 119.1 119.1" enable-background="new 0 0 119.1 119.1" xml:space="preserve">
<g>
	<g>
		
			<linearGradient id="SVGID_1_" gradientUnits="userSpaceOnUse" x1="16.9779" y1="61.9018" x2="104.2779" y2="61.9018" gradientTransform="matrix(1 4.489865e-05 4.489865e-05 -1 1.733507e-02 121.6988)">
			<stop  offset="0" style="stop-color:#21B4BB"/>
			<stop  offset="1" style="stop-color:#1E8EAB"/>
		</linearGradient>
		<path fill="url(#SVGID_1_)" d="M66.2,16.3l-0.6-5.1l-2.8,0.3C63.6,13.2,64.6,14.9,66.2,16.3 M41,21.5c-7.3,0.8-13.9-2.2-16.4-7.2
			L17,15.1l9.5,83.6l2.8-0.3l16-77.8C43.9,21,42.5,21.3,41,21.5 M23.8,35.8c-1.5,0.2-2.8-0.9-3-2.4c-0.2-1.5,0.9-2.8,2.4-3
			s2.8,0.9,3,2.4C26.4,34.2,25.3,35.7,23.8,35.8 M31.3,34.9c-1.5,0.2-2.8-0.9-3-2.4c-0.2-1.5,0.9-2.8,2.4-3c1.5-0.2,2.8,0.9,3,2.4
			C33.9,33.4,32.8,34.8,31.3,34.9 M38.6,34.1c-1.5,0.2-2.8-0.9-3-2.4c-0.2-1.5,0.9-2.8,2.4-3s2.8,0.9,3,2.4
			C41.3,32.6,40.2,33.9,38.6,34.1 M95.4,14.8c-3.5,5.6-11.5,8.5-20,6.8S60.7,14,59.6,7.5l-8.8-1.8l-19.9,97.4l8.6,1.7
			c3.2-6,11.6-9.3,20.4-7.5s15.2,8.1,15.9,14.9l8.6,1.7l19.9-97.4L95.4,14.8z M74.3,32.9c0.4-1.7,2.1-2.9,3.8-2.5s2.9,2.1,2.5,3.8
			s-2.1,2.9-3.8,2.5C75,36.4,73.9,34.6,74.3,32.9 M65.6,31.1c0.4-1.7,2.1-2.9,3.8-2.5c1.7,0.4,2.9,2.1,2.5,3.8
			c-0.4,1.7-2.1,2.9-3.8,2.5C66.4,34.5,65.3,32.8,65.6,31.1 M57,29.3c0.4-1.7,2.1-2.9,3.8-2.5s2.9,2.1,2.5,3.8
			c-0.4,1.7-2.1,2.9-3.8,2.5C57.7,32.8,56.6,31.1,57,29.3 M48.3,27.6c0.4-1.7,2.1-2.9,3.8-2.5s2.9,2.1,2.5,3.8
			c-0.4,1.7-2.1,2.9-3.8,2.5S48,29.3,48.3,27.6 M74.3,70.2l-0.4,11.2c0,0.4-0.5,0.6-0.7,0.3l-8.7-7.1l-10.7,3.2
			c-0.4,0.1-0.7-0.3-0.6-0.6l4.1-10.5L51,57.5c-0.2-0.3,0-0.7,0.4-0.7l11.2,0.7l6.9-8.9c0.2-0.3,0.7-0.2,0.8,0.2l2.8,10.8l10.6,3.8
			c0.4,0.1,0.4,0.6,0.1,0.8L74.3,70.2z M89.2,36c-0.4,1.7-2.1,2.9-3.8,2.5c-1.7-0.4-2.9-2.1-2.5-3.8s2.1-2.9,3.8-2.5
			C88.5,32.5,89.7,34.2,89.2,36 M94.1,40.3c-1.7-0.4-2.9-2.1-2.5-3.8s2.1-2.9,3.8-2.5c1.7,0.4,2.9,2.1,2.5,3.8S95.8,40.6,94.1,40.3"
			/>
	</g>
</g>
</svg>
